<?xml version="1.0" encoding="iso-8859-1"?>
<!-- Uploaded to: SVG Repo, www.svgrepo.com, Generator: SVG Repo Mixer Tools -->
<svg fill="#000000" height="800px" width="800px" version="1.1" id="Layer_1" xmlns="http://www.w3.org/2000/svg" xmlns:xlink="http://www.w3.org/1999/xlink" 
	 viewBox="0 0 512 512" xml:space="preserve">
<g>
	<g>
		<path d="M255.777,387.394c-0.134-0.712-0.356-1.414-0.634-2.081c-0.278-0.679-0.623-1.325-1.024-1.926
			c-0.401-0.612-0.868-1.18-1.38-1.692c-0.512-0.512-1.08-0.979-1.692-1.38c-0.601-0.401-1.247-0.746-1.914-1.024
			c-0.679-0.278-1.38-0.501-2.093-0.634c-1.436-0.289-2.905-0.289-4.341,0c-0.712,0.134-1.414,0.356-2.081,0.634
			c-0.679,0.278-1.325,0.623-1.926,1.024c-0.612,0.401-1.18,0.868-1.692,1.38c-0.512,0.512-0.979,1.08-1.38,1.692
			c-0.401,0.601-0.746,1.247-1.024,1.926c-0.278,0.668-0.501,1.369-0.634,2.081c-0.145,0.712-0.223,1.447-0.223,2.17
			c0,0.723,0.078,1.458,0.223,2.17c0.134,0.712,0.356,1.414,0.634,2.081c0.278,0.679,0.623,1.325,1.024,1.926
			c0.401,0.612,0.868,1.18,1.38,1.692c0.512,0.512,1.08,0.979,1.692,1.38c0.601,0.401,1.247,0.746,1.926,1.024
			c0.668,0.278,1.369,0.501,2.081,0.634c0.712,0.145,1.447,0.223,2.17,0.223c0.723,0,1.458-0.078,2.17-0.223
			c0.712-0.134,1.414-0.356,2.093-0.634c0.668-0.278,1.313-0.623,1.914-1.024c0.612-0.401,1.18-0.868,1.692-1.38
			c0.512-0.512,0.979-1.08,1.38-1.692c0.401-0.601,0.746-1.247,1.024-1.926c0.278-0.668,0.501-1.369,0.634-2.081
			c0.145-0.712,0.223-1.447,0.223-2.17C256,388.841,255.922,388.106,255.777,387.394z"/>
	</g>
</g>
<g>
	<g>
		<path d="M460.858,288.954l-37.901-16.797v-38.418c0-3.994-2.14-7.682-5.609-9.665l-72.304-41.317v-12.715
			c0-61.818-27-120.252-74.077-160.316l-8.309-7.072c-4.182-3.557-10.331-3.536-14.487,0.051l-8.265,7.136
			c-46.359,40.023-72.948,98.104-72.948,159.349v13.568l-72.304,41.317c-3.468,1.982-5.609,5.67-5.609,9.665v38.418l-37.901,16.797
			c-4.026,1.784-6.62,5.773-6.62,10.177v90.435c0,6.147,4.983,11.13,11.13,11.13h111.304v33.391
			c0,16.558,4.643,31.748,12.418,40.635l29.292,33.477c2.114,2.415,5.167,3.801,8.377,3.801s6.263-1.386,8.377-3.801l29.292-33.477
			c0.441-0.503,0.868-1.033,1.288-1.576c0.42,0.543,0.847,1.073,1.288,1.576l29.292,33.477c2.113,2.415,5.167,3.801,8.376,3.801
			c3.209,0,6.263-1.386,8.376-3.801l29.292-33.477c7.778-8.887,12.42-24.077,12.42-40.635v-33.391h111.304
			c6.146,0,11.13-4.983,11.13-11.13v-90.435C467.478,294.727,464.883,290.738,460.858,288.954z M166.957,378.435H66.783v-72.063
			l37.901-16.797c4.026-1.784,6.62-5.773,6.62-10.177v-39.2l55.652-31.801V378.435z M237.959,460.063l-20.915,23.904l-20.916-23.904
			c-2.324-2.657-4.663-7.883-5.936-14.846h53.702C242.622,452.181,240.284,457.406,237.959,460.063z M315.873,460.063
			l-20.916,23.904l-20.916-23.904c-2.324-2.657-4.663-7.883-5.935-14.846h53.702C320.535,452.181,318.197,457.406,315.873,460.063z
			 M322.783,189.218v189.217h-44.522c-6.146,0-11.13,4.983-11.13,11.13c0,6.147,4.984,11.13,11.13,11.13h44.522v22.261H256h-66.783
			v-22.261h22.261c6.147,0,11.13-4.983,11.13-11.13c0-6.147-4.983-11.13-11.13-11.13h-22.261V189.218v-20.028
			c0-54.77,23.777-106.709,65.233-142.498l1.044-0.902l1.044,0.888c42.099,35.829,66.244,88.083,66.244,143.364V189.218z
			 M445.217,378.435H345.044V208.398l55.652,31.801v39.2c0,4.403,2.596,8.392,6.62,10.177l37.901,16.797V378.435z"/>
	</g>
</g>
<g>
	<g>
		<path d="M278.91,200.348c6.146,0,11.13-4.983,11.13-11.13v-22.261c0-18.412-14.979-33.391-33.391-33.391
			c-18.412,0-33.391,14.979-33.391,33.391V256c0,18.412,14.979,33.391,33.391,33.391c18.412,0,33.391-14.979,33.391-33.391
			c0-6.147-4.984-11.13-11.13-11.13s-11.13,4.983-11.13,11.13c0,6.137-4.993,11.13-11.13,11.13s-11.13-4.993-11.13-11.13v-89.043
			c0-6.137,4.993-11.13,11.13-11.13s11.13,4.993,11.13,11.13v22.261C267.779,195.365,272.764,200.348,278.91,200.348z"/>
	</g>
</g>
<g>
	<g>
		<path d="M289.824,220.437c-0.144-0.712-0.356-1.414-0.634-2.081c-0.278-0.679-0.622-1.325-1.024-1.926
			c-0.411-0.612-0.867-1.18-1.391-1.692c-0.512-0.512-1.08-0.979-1.692-1.38c-0.601-0.401-1.247-0.746-1.914-1.024
			c-0.669-0.278-1.369-0.501-2.081-0.634c-1.436-0.289-2.916-0.289-4.352,0c-0.712,0.134-1.415,0.356-2.081,0.634
			s-1.325,0.623-1.924,1.024c-0.613,0.401-1.181,0.868-1.693,1.38c-0.512,0.512-0.979,1.08-1.38,1.692
			c-0.4,0.601-0.746,1.247-1.024,1.926c-0.278,0.668-0.489,1.369-0.633,2.081c-0.146,0.712-0.223,1.447-0.223,2.17
			c0,0.723,0.077,1.458,0.223,2.17c0.145,0.712,0.355,1.414,0.633,2.081c0.278,0.679,0.624,1.325,1.024,1.926
			c0.401,0.612,0.868,1.18,1.38,1.692c0.512,0.512,1.08,0.979,1.693,1.38c0.6,0.401,1.258,0.746,1.924,1.024
			s1.369,0.501,2.081,0.634c0.712,0.145,1.447,0.223,2.17,0.223c0.735,0,1.458-0.078,2.182-0.223
			c0.712-0.134,1.414-0.356,2.081-0.634c0.668-0.278,1.313-0.623,1.914-1.024c0.612-0.401,1.18-0.868,1.692-1.38
			c0.524-0.512,0.981-1.08,1.391-1.692c0.401-0.601,0.746-1.247,1.024-1.926c0.278-0.668,0.49-1.369,0.634-2.081
			s0.211-1.447,0.211-2.17C290.036,221.884,289.968,221.15,289.824,220.437z"/>
	</g>
</g>
</svg>